<svg xmlns="http://www.w3.org/2000/svg" width="1060" height="1060" fill="none" viewBox="0 0 1060 1060"><g filter="url(#filter0_d_51_19)"><rect width="1000" height="1000" x="34" y="19" fill="#fff"/></g><path fill="#000" d="M748.206 373.87L553.996 263.353C541.488 256.216 525.907 256.216 513.399 263.353L319.189 373.87C306.681 381.007 299 394.2 299 408.474V629.508C299 643.783 306.681 656.975 319.189 664.113L423.206 723.372L423.645 722.291C433.081 702.826 432.862 680.333 423.206 660.868L353.642 621.29V416.476L533.588 314.178L713.533 416.476V621.29L561.019 708.017V635.348C561.019 635.348 561.677 635.348 562.116 635.348C606.444 635.348 646.602 605.069 656.477 560.516C656.916 558.137 654.941 555.326 652.527 554.677C627.291 549.27 601.397 553.812 579.891 567.437C572.869 571.979 566.724 577.602 561.019 583.442V418.207H540.171C521.518 418.207 506.157 433.13 506.157 451.729V509.475C500.451 502.554 494.307 496.066 486.626 490.659C465.56 475.952 440.104 470.329 414.429 474.438C412.015 474.871 410.04 477.899 410.479 480.062C414.867 505.15 428.693 526.994 449.759 541.7C466.218 553.163 485.529 559.219 505.279 559.219C505.499 559.219 505.718 559.219 506.157 559.219V770.088L513.399 774.197C525.907 781.334 541.488 781.334 553.996 774.197L561.238 770.088L748.206 663.68C760.714 656.543 768.395 643.35 768.395 629.076V408.474C768.395 394.2 760.714 381.007 748.206 373.87Z"/><defs><filter id="filter0_d_51_19" width="1060" height="1060" x="0" y="0" color-interpolation-filters="sRGB" filterUnits="userSpaceOnUse"><feFlood flood-opacity="0" result="BackgroundImageFix"/><feColorMatrix in="SourceAlpha" result="hardAlpha" type="matrix" values="0 0 0 0 0 0 0 0 0 0 0 0 0 0 0 0 0 0 127 0"/><feOffset dx="-4" dy="11"/><feGaussianBlur stdDeviation="15"/><feComposite in2="hardAlpha" operator="out"/><feColorMatrix type="matrix" values="0 0 0 0 0 0 0 0 0 0 0 0 0 0 0 0 0 0 0.25 0"/><feBlend in2="BackgroundImageFix" mode="normal" result="effect1_dropShadow_51_19"/><feBlend in="SourceGraphic" in2="effect1_dropShadow_51_19" mode="normal" result="shape"/></filter></defs></svg>