<svg width="138" height="40" viewBox="0 0 138 40" fill="none" xmlns="http://www.w3.org/2000/svg">
<path d="M56.5398 21.1436H46.8348L45.5461 23.8322H41.2449L51.8082 3.4574L62.3982 23.8322H57.8551L56.5398 21.1436ZM48.6385 17.3791H54.7144L51.6511 11.1436L48.6385 17.3791Z" fill="white"/>
<path d="M68.3121 20.3626V23.8297H64.1462V3.8031H71.1095C75.8145 3.8031 79.4146 7.32341 79.4146 11.6803C79.4146 15.2828 77.6932 17.9158 74.8982 19.2069L79.226 23.8297H73.6893L70.4107 20.3626H68.3121ZM70.5969 16.6005C73.5539 16.6005 75.2197 14.7992 75.2197 12.0043C75.2197 9.55745 73.7401 7.57002 70.8387 7.57002H68.3121V16.6029H70.5969V16.6005Z" fill="white"/>
<path d="M82.2894 23.8321V3.80554H88.7135C92.4223 3.80554 95.0843 5.36503 95.0843 9.10052C95.0843 10.498 94.6274 11.6005 93.6603 12.4878C95.4615 13.7233 96.3754 15.4448 96.3754 17.379C96.3754 21.4651 92.9615 23.8297 89.2792 23.8297H82.2894V23.8321ZM88.5539 11.2789C90.5703 11.2789 90.8121 10.2562 90.8121 9.4245C90.8121 7.89162 89.7096 7.57005 88.5539 7.57005H86.4577V11.2789H88.5539ZM89.4122 20.0676C91.1337 20.0676 92.1008 19.0739 92.1008 17.5144C92.1008 15.9018 91.1337 14.9081 89.4122 14.9081H86.4552V20.0701H89.4122V20.0676Z" fill="white"/>
<path d="M98.5248 13.8056C98.5248 8.08023 103.148 3.4574 108.873 3.4574C114.625 3.4574 119.25 8.08023 119.25 13.8056C119.25 19.5309 114.627 24.1827 108.902 24.1827C103.148 24.1803 98.5248 19.5309 98.5248 13.8056ZM102.8 13.8056C102.8 17.3815 105.461 20.1765 108.902 20.1765C112.289 20.1765 114.978 17.3815 114.978 13.8056C114.978 10.2853 112.263 7.43467 108.875 7.43467C105.459 7.43467 102.8 10.2828 102.8 13.8056Z" fill="white"/>
<path d="M126.4 20.3626V23.8297H122.234V3.8031H129.197C133.902 3.8031 137.502 7.32341 137.502 11.6803C137.502 15.2828 135.781 17.9158 132.986 19.2069L137.314 23.8297H131.777L128.498 20.3626H126.4ZM128.684 16.6005C131.641 16.6005 133.307 14.7992 133.307 12.0043C133.307 9.55745 131.83 7.57002 128.926 7.57002H126.4V16.6029H128.684V16.6005Z" fill="white"/>
<path d="M41.2449 36.3878V27.4709H45.9862V29.1465H43.1017V30.8099H46.4528V32.4855H43.1017V36.3878H41.2449Z" fill="white"/>
<path d="M56.5906 36.3878H54.7361V27.4709H56.5906V36.3878Z" fill="white"/>
<path d="M71.7115 27.4709H73.566V36.5449L67.2217 31.2668V36.3901H65.3672V27.3041L71.7115 32.6305V27.4709Z" fill="white"/>
<path d="M88.2299 35.1909H83.9093L83.3338 36.3877H81.4189L86.124 27.3137L90.8411 36.3877H88.8174L88.2299 35.1909ZM84.7096 33.5154H87.4151L86.0514 30.7373L84.7096 33.5154Z" fill="white"/>
<path d="M105.036 27.4709H106.89V36.5449L100.546 31.2668V36.3901H98.6917V27.3041L105.036 32.6305V27.4709Z" fill="white"/>
<path d="M123.796 34.3785C122.969 35.6841 121.533 36.5449 119.881 36.5449C117.33 36.5449 115.297 34.4849 115.297 31.9366C115.297 29.3882 117.333 27.3162 119.869 27.3162C121.496 27.3162 122.933 28.1793 123.723 29.4825L122.275 30.5125C121.663 29.555 120.766 29.0884 119.881 29.0884C118.385 29.0884 117.2 30.3577 117.2 31.9366C117.2 33.5057 118.385 34.7726 119.881 34.7726C120.802 34.7726 121.714 34.306 122.36 33.3486L123.796 34.3785Z" fill="white"/>
<path d="M131.97 36.3878V27.4709H136.712V29.1465H133.827V30.8099H137.178V32.4855H133.827V34.7122H137.502V36.3878H131.97Z" fill="white"/>
<path fill-rule="evenodd" clip-rule="evenodd" d="M36.431 39.9854C35.5365 38.102 34.8764 35.955 34.4243 33.4477C34.3058 32.7901 34.2115 32.1204 34.1221 31.4748C33.8682 29.6421 33.6264 27.9134 32.8406 26.2838C32.8261 26.2524 32.8092 26.2234 32.7947 26.1919C31.6124 23.808 29.6008 22.072 27.1129 21.3007C27.0935 21.2935 27.0669 21.2862 27.0403 21.279C26.6148 21.1581 25.3986 20.8849 24.5718 20.7712C24.6927 20.868 24.8184 20.9719 24.9489 21.0807C24.9707 21.0976 24.99 21.1146 25.0118 21.1315C25.3334 21.4168 25.6839 21.7263 26.0249 22.0793C26.1941 22.2558 26.3682 22.4395 26.5447 22.6257C26.7188 22.8143 26.8808 23.0222 27.0524 23.2253C27.4054 23.6242 27.7125 24.0836 28.0413 24.5309C28.0486 24.5406 28.0534 24.5502 28.0606 24.5599C28.3701 25.0096 28.6482 25.4884 28.9383 25.9574C29.1922 26.4603 29.4678 26.9511 29.6999 27.4516C29.9127 27.9618 30.1375 28.455 30.3237 28.9434C30.4905 29.439 30.6525 29.9178 30.8048 30.3723C30.9426 30.8293 31.0394 31.2717 31.1482 31.6755C31.2521 32.0793 31.3488 32.4468 31.3972 32.7828C31.4552 33.1141 31.506 33.4042 31.5471 33.6436C31.6293 34.1199 31.6777 34.3907 31.6777 34.3907C31.6777 34.3907 31.6075 34.1223 31.4842 33.6557C31.4238 33.4211 31.3488 33.1383 31.2642 32.8143C31.1893 32.4879 31.0635 32.13 30.9281 31.7384C30.7903 31.3491 30.6573 30.9236 30.4857 30.4859C30.2995 30.0532 30.1013 29.5986 29.8982 29.1271C29.6757 28.6653 29.417 28.2035 29.1704 27.7272C28.9069 27.2606 28.5998 26.8085 28.3169 26.3491C27.9929 25.9139 27.6859 25.469 27.3474 25.058C26.9968 24.6566 26.6752 24.248 26.3077 23.8999C26.1288 23.7234 25.962 23.5396 25.7831 23.3776C25.6017 23.218 25.4252 23.0609 25.2536 22.9086C24.9103 22.6064 24.5621 22.3476 24.2429 22.1107C24.0253 21.9584 23.8222 21.823 23.6288 21.6948C21.7889 27.9158 22.1225 32.6499 24.6395 35.7761C28.0171 39.9661 34.4436 40.0628 36.431 39.9854Z" fill="white"/>
<path fill-rule="evenodd" clip-rule="evenodd" d="M33.8198 0C32.6375 1.71663 31.1071 3.36073 29.1607 5.00725C28.6506 5.44004 28.1187 5.85348 27.6037 6.25483C26.1433 7.3912 24.7676 8.4647 23.7497 9.96132C23.7304 9.99033 23.7135 10.0193 23.6941 10.0484C22.2217 12.2631 21.7236 14.8743 22.2966 17.4154C22.3015 17.4347 22.3087 17.4613 22.3135 17.4879C22.4224 17.9159 22.7923 19.1078 23.1066 19.8791C23.1308 19.7244 23.1574 19.5648 23.1864 19.398C23.1912 19.3714 23.1936 19.3448 23.1985 19.3182C23.2855 18.8951 23.3774 18.4381 23.5128 17.9666C23.5829 17.7321 23.653 17.4903 23.7255 17.2437C23.8029 16.9995 23.902 16.7553 23.9891 16.5039C24.1583 15.9986 24.4025 15.5029 24.625 14.9952C24.6298 14.9855 24.6346 14.9758 24.6395 14.9637C24.874 14.4705 25.1496 13.9918 25.4107 13.5058C25.7178 13.0343 26.0055 12.5508 26.3247 12.1011C26.6607 11.661 26.9751 11.221 27.3039 10.8148C27.6496 10.4231 27.9833 10.0435 28.3 9.68327C28.6264 9.3351 28.9625 9.03047 29.2575 8.73549C29.5548 8.44294 29.8256 8.17699 30.0916 7.96664C30.3503 7.74904 30.5752 7.56045 30.7613 7.40571C31.1312 7.09623 31.344 6.91732 31.344 6.91732C31.344 6.91732 31.1482 7.11074 30.8024 7.45165C30.6308 7.62089 30.4228 7.8264 30.1835 8.06335C29.9369 8.29062 29.6902 8.57834 29.4219 8.89265C29.1559 9.20696 28.8513 9.53336 28.5587 9.90329C28.2782 10.2805 27.9833 10.6794 27.6762 11.0928C27.3861 11.516 27.1177 11.9729 26.8276 12.4226C26.5544 12.8844 26.3174 13.3752 26.0587 13.8515C25.8435 14.3496 25.6114 14.838 25.4253 15.3361C25.2536 15.839 25.0602 16.3225 24.9417 16.8133C24.8764 17.0575 24.8039 17.2921 24.7507 17.529C24.7023 17.766 24.654 17.9957 24.608 18.2205C24.5186 18.6702 24.4678 19.1006 24.4219 19.4947C24.4001 19.7606 24.3808 20.0024 24.3711 20.2345C30.6767 18.7186 34.6105 16.0614 36.0611 12.3211C38.0099 7.2969 34.8812 1.68279 33.8198 0Z" fill="white"/>
<path fill-rule="evenodd" clip-rule="evenodd" d="M0.497803 22.2534C2.57711 22.4203 4.76521 22.9232 7.16367 23.7839C7.79229 24.0088 8.4185 24.2626 9.02295 24.5093C10.7372 25.2056 12.3547 25.8608 14.1583 25.9938C14.1922 25.9962 14.226 25.9962 14.2599 25.9986C16.9146 26.1654 19.4267 25.2926 21.3368 23.5252C21.3513 23.5107 21.3706 23.4914 21.39 23.4744C21.7067 23.1674 22.5529 22.2486 23.0631 21.591C22.918 21.6466 22.7657 21.7046 22.6085 21.7626C22.5819 21.7723 22.5578 21.782 22.5312 21.7916C22.1226 21.927 21.6801 22.0769 21.2038 22.1954C20.9644 22.2534 20.7202 22.3115 20.4712 22.3743C20.2198 22.4299 19.9611 22.4662 19.6975 22.5146C19.1753 22.6209 18.624 22.6572 18.0728 22.7177C18.0607 22.7177 18.0486 22.7177 18.0389 22.7201C17.4949 22.7636 16.9412 22.7636 16.3924 22.7805C15.829 22.7491 15.2681 22.7443 14.7193 22.6935C14.1704 22.6234 13.6313 22.5726 13.1163 22.488C12.6037 22.384 12.1081 22.2849 11.639 22.1906C11.1748 22.0818 10.742 21.944 10.3407 21.8352C9.9393 21.7239 9.57179 21.6224 9.25748 21.4967C8.94075 21.3806 8.66512 21.2791 8.43785 21.1969C7.9833 21.03 7.7246 20.9357 7.7246 20.9357C7.7246 20.9357 7.99055 21.0083 8.45719 21.1364C8.6893 21.1993 8.97218 21.2767 9.29616 21.3661C9.61773 21.4652 9.99007 21.5354 10.3963 21.6127C10.8024 21.6877 11.2377 21.7868 11.7043 21.8545C12.1709 21.9077 12.6641 21.9657 13.1743 22.0238C13.6845 22.0624 14.2164 22.0697 14.7507 22.0939C15.2875 22.0987 15.829 22.06 16.3706 22.0455C16.9098 21.9826 17.449 21.9391 17.9736 21.8521C18.4959 21.7505 19.0109 21.6756 19.4944 21.5305C19.7362 21.4652 19.978 21.4096 20.2077 21.3395C20.4374 21.2622 20.6598 21.1896 20.8774 21.1171C21.3126 20.9696 21.7091 20.7979 22.0742 20.6432C22.316 20.5296 22.5336 20.4232 22.7415 20.3192C18.2759 15.6166 14.0084 13.5373 10.0433 14.1538C4.72169 14.9783 1.42382 20.4933 0.497803 22.2534Z" fill="white"/>
</svg>
