<svg width="20" height="20" viewBox="0 0 20 20" fill="none" xmlns="http://www.w3.org/2000/svg">
<path fill-rule="evenodd" clip-rule="evenodd" d="M10 19.6C15.3019 19.6 19.6 15.302 19.6 10C19.6 4.69809 15.3019 0.400024 10 0.400024C4.69807 0.400024 0.400002 4.69809 0.400002 10C0.400002 15.302 4.69807 19.6 10 19.6ZM14.4485 8.44855C14.9172 7.97992 14.9172 7.22013 14.4485 6.7515C13.9799 6.28287 13.2201 6.28287 12.7515 6.7515L8.8 10.703L7.24853 9.1515C6.7799 8.68287 6.0201 8.68287 5.55147 9.1515C5.08284 9.62013 5.08284 10.3799 5.55147 10.8486L7.95147 13.2486C8.4201 13.7172 9.1799 13.7172 9.64853 13.2486L14.4485 8.44855Z" fill="#B3F14F"/>
</svg>
