<svg width="138" height="30" viewBox="0 0 138 30" fill="none" xmlns="http://www.w3.org/2000/svg">
<path d="M21.2783 1H3.03299C1.35063 1 0 2.34433 0 4.01884V25.1979C0 26.8724 1.35063 28.2167 3.03299 28.2167H24.3113C25.9937 28.2167 27.3443 26.8724 27.3443 25.1979V7.03768L21.2783 1ZM9.12267 4.01884H18.2453V8.57069H9.12267V4.01884ZM24.335 25.2215H3.03299V4.01884H6.06598V11.5895H21.2783V5.29242L24.335 8.31126V25.2215ZM6.08968 14.632H21.302V17.6508H6.08968V14.632ZM6.08968 19.1602H21.302V22.1791H6.08968V19.1602Z" fill="#FFA500"/>
<path d="M56.9871 4.20746V25.7167C56.9871 26.0469 56.8212 26.1884 56.5132 26.1884H53.9067C53.575 26.1884 53.4328 26.0233 53.4328 25.7167V4.20746C53.4328 3.87728 53.5987 3.73577 53.9067 3.73577H56.5132C56.8212 3.71218 56.9871 3.87728 56.9871 4.20746ZM42.0828 2.88672H40.1161C36.7277 2.88672 34.8794 4.67916 34.8794 8.28762V10.1508H33.1734C32.8416 10.1508 32.6995 10.3159 32.6995 10.6225V12.863C32.6995 13.1932 32.8653 13.3347 33.1734 13.3347H34.8794V25.6931C34.8794 26.0233 35.0453 26.1648 35.3533 26.1648H37.9598C38.2915 26.1648 38.4337 25.9997 38.4337 25.6931V13.3583H41.7274C42.0591 13.3583 42.2013 13.1932 42.2013 12.8866V10.6461C42.2013 10.3159 42.0354 10.1744 41.7274 10.1744H38.4337V8.28762C38.4337 6.87253 39.0498 6.23575 40.0687 6.23575H42.0354C42.3671 6.23575 42.5093 6.07065 42.5093 5.76405V3.35841C42.5804 3.05181 42.4145 2.88672 42.0828 2.88672ZM48.7411 10.1508H46.1347C45.8029 10.1508 45.6608 10.3159 45.6608 10.6225V25.7167C45.6608 26.0469 45.8266 26.1884 46.1347 26.1884H48.7411C49.0729 26.1884 49.215 26.0233 49.215 25.7167V10.6225C49.215 10.2923 49.0492 10.1508 48.7411 10.1508ZM48.7411 3.71218H46.1347C45.8029 3.71218 45.6608 3.87728 45.6608 4.18388V6.73102C45.6608 7.06121 45.8266 7.20272 46.1347 7.20272H48.7411C49.0729 7.20272 49.215 7.03763 49.215 6.73102V4.20746C49.215 3.87728 49.0492 3.71218 48.7411 3.71218ZM105.894 25.9054C105.918 26.0233 105.965 26.1884 105.799 26.1884H102.837C102.482 26.1884 102.245 25.8582 102.245 25.4101V24.3252C101.51 25.4573 100.444 26.3535 98.7855 26.3535H97.7903C94.781 26.3535 92.601 24.5611 92.601 21.3535C92.601 18.146 94.3782 16.7074 97.7192 16.7074H102.245V15.3866C102.245 13.6885 101.629 13.2404 99.9466 13.2404H99.0699C97.4349 13.2404 96.2027 13.6649 95.5156 13.9479C94.9943 14.1366 94.6388 14.1366 94.4493 13.6885L93.7621 12.1083C93.6436 11.7782 93.5962 11.5187 93.928 11.33C95.2786 10.5046 97.2927 10.0093 99.0462 10.0093H99.9229C103.927 10.0093 105.799 11.7782 105.799 15.5281V25.4101C105.823 25.5752 105.847 25.7875 105.894 25.9054ZM102.245 19.4903H97.7903C96.8188 19.4903 96.1553 19.9149 96.1553 21.33C96.1553 22.6743 96.8425 23.1696 97.7903 23.1696H99.4964C101.25 23.1696 101.842 22.462 102.245 21.6366V19.4903ZM115.159 16.4715C112.955 16.2121 112.718 15.5753 112.718 14.6319C112.718 13.7357 113.405 13.2168 114.614 13.2168H115.68C117.007 13.2168 117.386 13.8064 117.671 14.5376C117.836 14.9857 118.121 15.1272 118.5 15.1272H120.822C121.178 15.1272 121.272 14.9385 121.272 14.6083C121.272 11.7546 118.974 10.0565 115.728 10.0565H114.59C111.273 10.0565 109.117 11.448 109.117 14.7027C109.117 18.0045 110.657 19.2545 115.159 19.6083C117.671 19.8441 118.002 20.1979 118.002 21.5658C118.002 22.6271 117.386 23.1696 116.012 23.1696H114.614C113.382 23.1696 113.003 22.745 112.647 22.0375C112.552 21.7781 112.363 21.6837 111.865 21.6837H109.519C109.188 21.6837 108.998 21.8724 109.046 22.1554C109.377 24.8912 111.273 26.3299 114.732 26.3299H115.87C119.519 26.3299 121.604 24.8912 121.604 21.5422C121.557 17.8394 119.471 16.896 115.159 16.4715ZM73.1709 15.8583V18.6177C73.1709 19.2309 72.8392 19.5847 72.1994 19.5847H64.0483V20.9998C64.0483 22.4856 64.8776 23.146 66.1335 23.146H67.721C69.5219 23.146 69.9484 22.7922 70.6356 22.0139C70.8251 21.7781 71.0147 21.7781 71.3464 22.0139L72.6734 22.8865C73.0051 23.1224 73.0288 23.3347 72.8392 23.5941C71.6781 25.0092 70.6119 26.3535 67.7447 26.3535H66.1572C62.6029 26.3535 60.3755 23.712 60.3755 20.3158V15.8583C60.3755 12.3914 62.6029 10.0093 66.1572 10.0093H67.7447C70.754 10.0093 73.1709 12.2263 73.1709 15.8583ZM69.593 15.3866C69.593 13.8536 68.8584 13.2404 67.721 13.2404H66.1335C64.8776 13.2404 64.0483 13.8536 64.0483 15.4338V16.8253H69.593V15.3866ZM127.978 19.5847V20.9998C127.978 22.4856 128.807 23.146 130.063 23.146H131.651C133.452 23.146 133.878 22.7922 134.565 22.0139C134.755 21.7781 134.944 21.7781 135.276 22.0139L136.603 22.8865C136.935 23.1224 136.959 23.3347 136.769 23.5941C135.608 25.0092 134.542 26.3535 131.675 26.3535H130.087C126.533 26.3535 124.305 23.712 124.305 20.3158V15.8583C124.305 12.3914 126.533 10.0093 130.087 10.0093H131.675C134.708 10.0093 137.124 12.2263 137.124 15.8583V18.6177C137.124 19.2309 136.793 19.5847 136.153 19.5847H127.978ZM127.978 16.7781H133.523V15.363C133.523 13.83 132.788 13.2168 131.651 13.2168H130.087C128.831 13.2168 128.002 13.83 128.002 15.4102V16.7781H127.978ZM89.8524 15.8347V20.6224C89.8524 24.0186 87.7198 26.3771 84.1655 26.3771H83.3599C81.7249 26.3771 80.706 25.646 80.1374 24.6318V25.7167C80.1374 26.0469 79.9004 26.1884 79.6871 26.1884H77.0333C76.7015 26.1884 76.5594 26.0233 76.5594 25.7167V4.20746C76.5594 3.87728 76.7252 3.73577 77.0333 3.73577H79.6871C79.9241 3.73577 80.1374 3.90086 80.1374 4.20746V11.6131C80.7297 10.6933 81.7249 10.0093 83.3599 10.0093H84.1655C87.7198 10.0093 89.8524 12.3914 89.8524 15.8347ZM86.2744 15.3866C86.2744 13.8536 85.4451 13.2404 84.1418 13.2404H82.2462C80.9904 13.2404 80.161 13.8536 80.161 15.3866V20.9998C80.161 22.4856 80.9904 23.146 82.2462 23.146H84.1418C85.4214 23.146 86.2744 22.462 86.2744 20.9998V15.3866Z" fill="white"/>
</svg>
