<svg width="21" height="20" viewBox="0 0 21 20" fill="none" xmlns="http://www.w3.org/2000/svg">
<g clip-path="url(#clip0_57_37045)">
<path d="M9.50171 14.8083C9.57865 14.8085 9.6548 14.8237 9.72584 14.8533C9.79687 14.8828 9.86139 14.926 9.91572 14.9805C9.97004 15.035 10.0131 15.0996 10.0424 15.1708C10.0718 15.2419 10.0868 15.3181 10.0867 15.395C10.0866 15.4719 10.0713 15.5481 10.0418 15.6191C10.0123 15.6902 9.96901 15.7547 9.91454 15.809C9.86006 15.8633 9.79542 15.9064 9.7243 15.9357C9.65318 15.9651 9.57698 15.9801 9.50005 15.98C9.34467 15.9798 9.19575 15.9179 9.08604 15.8078C8.97633 15.6978 8.91483 15.5487 8.91505 15.3933C8.91527 15.238 8.9772 15.0891 9.08722 14.9793C9.19724 14.8696 9.34634 14.8081 9.50171 14.8083ZM18.6884 11.1858C18.6114 11.1858 18.5353 11.1706 18.4642 11.1411C18.3932 11.1116 18.3286 11.0684 18.2743 11.014C18.2199 10.9595 18.1768 10.8949 18.1474 10.8238C18.118 10.7527 18.1029 10.6765 18.103 10.5996C18.103 10.5227 18.1182 10.4465 18.1477 10.3754C18.1772 10.3044 18.2204 10.2398 18.2748 10.1855C18.3293 10.1311 18.3939 10.088 18.465 10.0586C18.5361 10.0292 18.6123 10.0141 18.6892 10.0142C18.8446 10.0143 18.9936 10.0761 19.1033 10.1861C19.2131 10.296 19.2747 10.4451 19.2746 10.6004C19.2745 10.7558 19.2127 10.9048 19.1027 11.0146C18.9928 11.1243 18.8438 11.186 18.6884 11.1858ZM18.6884 8.78918C18.208 8.78962 17.7475 8.98063 17.4078 9.32029C17.0682 9.65995 16.8772 10.1205 16.8767 10.6008C16.8767 10.795 16.9092 10.9883 16.9725 11.1767L10.9884 14.3625C10.8224 14.1216 10.6004 13.9246 10.3414 13.7886C10.0824 13.6526 9.79425 13.5816 9.50171 13.5817C8.81088 13.5817 8.18171 13.9775 7.87671 14.595L2.50088 11.76C1.93255 11.4617 1.50755 10.5267 1.55255 9.67501C1.57588 9.23085 1.72921 8.88585 1.96338 8.75251C2.11171 8.66918 2.29005 8.67585 2.48005 8.77501L2.51505 8.79418C3.94005 9.54418 8.60171 12 8.79838 12.0908C9.10088 12.2317 9.26921 12.2883 9.78588 12.0433L19.4225 7.03168C19.5642 6.97835 19.7292 6.84251 19.7292 6.63668C19.7292 6.35168 19.4342 6.23918 19.4334 6.23918C18.885 5.97668 18.0425 5.58251 17.2209 5.19751C15.4642 4.37501 13.4734 3.44335 12.5992 2.98501C11.8442 2.59001 11.2367 2.92335 11.1284 2.99001L10.9184 3.09418C6.98338 5.04001 1.71671 7.64835 1.41671 7.83085C0.880879 8.15751 0.548379 8.80835 0.505046 9.61585C0.438379 10.8967 1.09088 12.2325 2.02505 12.7217L7.71005 15.6533C7.77267 16.084 7.98815 16.4777 8.3171 16.7626C8.64606 17.0475 9.06654 17.2045 9.50171 17.205C9.97699 17.2042 10.433 17.0169 10.7716 16.6834C11.1102 16.3499 11.3045 15.8969 11.3125 15.4217L17.5742 12.0275C17.8909 12.2758 18.285 12.4117 18.6884 12.4117C19.1687 12.4112 19.6293 12.2202 19.9689 11.8806C20.3086 11.5409 20.4996 11.0804 20.5 10.6C20.4996 10.1197 20.3086 9.65912 19.9689 9.31946C19.6293 8.9798 19.1687 8.78879 18.6884 8.78835" fill="white"/>
</g>
<defs>
<clipPath id="clip0_57_37045">
<rect width="20" height="20" fill="white" transform="translate(0.5)"/>
</clipPath>
</defs>
</svg>
