<svg width="21" height="20" viewBox="0 0 21 20" fill="none" xmlns="http://www.w3.org/2000/svg">
<path d="M10.5 1.66675C9.40567 1.66675 8.32204 1.8823 7.31099 2.30109C6.29994 2.71987 5.38129 3.3337 4.60746 4.10752C3.04466 5.67033 2.16669 7.78994 2.16669 10.0001C2.16669 13.6834 4.55835 16.8084 7.86669 17.9167C8.28335 17.9834 8.41669 17.7251 8.41669 17.5001V16.0917C6.10835 16.5917 5.61669 14.9751 5.61669 14.9751C5.23335 14.0084 4.69169 13.7501 4.69169 13.7501C3.93335 13.2334 4.75002 13.2501 4.75002 13.2501C5.58335 13.3084 6.02502 14.1084 6.02502 14.1084C6.75002 15.3751 7.97502 15.0001 8.45002 14.8001C8.52502 14.2584 8.74169 13.8917 8.97502 13.6834C7.12502 13.4751 5.18335 12.7584 5.18335 9.58342C5.18335 8.65841 5.50002 7.91675 6.04169 7.32508C5.95835 7.11675 5.66669 6.25008 6.12502 5.12508C6.12502 5.12508 6.82502 4.90008 8.41669 5.97508C9.07502 5.79175 9.79169 5.70008 10.5 5.70008C11.2084 5.70008 11.925 5.79175 12.5834 5.97508C14.175 4.90008 14.875 5.12508 14.875 5.12508C15.3334 6.25008 15.0417 7.11675 14.9584 7.32508C15.5 7.91675 15.8167 8.65841 15.8167 9.58342C15.8167 12.7667 13.8667 13.4667 12.0084 13.6751C12.3084 13.9334 12.5834 14.4417 12.5834 15.2167V17.5001C12.5834 17.7251 12.7167 17.9917 13.1417 17.9167C16.45 16.8001 18.8334 13.6834 18.8334 10.0001C18.8334 8.90573 18.6178 7.8221 18.199 6.81105C17.7802 5.80001 17.1664 4.88135 16.3926 4.10752C15.6188 3.3337 14.7001 2.71987 13.689 2.30109C12.678 1.8823 11.5944 1.66675 10.5 1.66675Z" fill="white"/>
</svg>
