<svg width="146" height="40" viewBox="0 0 146 40" fill="none" xmlns="http://www.w3.org/2000/svg">
<mask id="mask0_57_17926" style="mask-type:luminance" maskUnits="userSpaceOnUse" x="0" y="0" width="146" height="40">
<path d="M145.143 0H0.857056V40H145.143V0Z" fill="white"/>
</mask>
<g mask="url(#mask0_57_17926)">
<path d="M30.2265 9.50745C25.23 9.50745 21.1602 13.567 21.1602 18.5653C21.1602 23.5636 25.2234 27.6232 30.2265 27.6232C35.2293 27.6232 39.2928 23.5636 39.2928 18.5653C39.2928 13.567 35.2293 9.50745 30.2265 9.50745ZM30.2265 23.0149C27.7712 23.0149 25.7661 21.0182 25.7661 18.5587C25.7661 16.0992 27.7646 14.1025 30.2265 14.1025C32.6882 14.1025 34.6868 16.0992 34.6868 18.5587C34.6868 21.0182 32.6882 23.0149 30.2265 23.0149Z" fill="white"/>
<path d="M58.2193 9.36853H55.5853C55.0428 9.36853 54.5993 9.81153 54.5993 10.3537V10.6842C53.2825 9.93713 51.7605 9.50739 50.139 9.50739C45.1428 9.50739 41.0728 13.5669 41.0728 18.5652C41.0728 23.5636 45.1362 27.6231 50.139 27.6231C51.7605 27.6231 53.2825 27.1933 54.5993 26.4462V31.0017C54.5993 33.4611 52.5679 35.4511 50.0993 35.3982C47.7302 35.3454 45.7979 33.2825 45.7979 30.9157V29.8842C45.7979 29.342 45.3545 28.8991 44.8119 28.8991H42.1779C41.6353 28.8991 41.1919 29.342 41.1919 29.8842V30.8694C41.1919 35.6957 44.9442 39.7685 49.7685 39.9934C54.9302 40.2314 59.2053 36.1057 59.2053 31.0017V10.3537C59.2053 9.81153 58.7619 9.36853 58.2193 9.36853ZM50.139 23.0148C47.6839 23.0148 45.6788 21.0181 45.6788 18.5586C45.6788 16.0991 47.6773 14.1024 50.139 14.1024C52.6008 14.1024 54.5993 16.0991 54.5993 18.5586C54.5993 21.0181 52.6008 23.0148 50.139 23.0148Z" fill="white"/>
<path d="M90.8379 9.40822C89.1571 9.37516 87.5819 9.81814 86.2319 10.5983C86.2188 10.0562 85.7753 9.61979 85.2328 9.61979H82.6916C82.1356 9.61979 81.6922 10.0694 81.6922 10.6181V38.5388C81.6922 39.0943 82.1422 39.5371 82.6916 39.5371H85.2328C85.7888 39.5371 86.2319 39.0877 86.2319 38.5388V26.1025C87.5422 26.8562 89.0579 27.2925 90.6725 27.2925C95.7351 27.2925 99.8248 23.0743 99.6131 17.9768C99.4211 13.309 95.5102 9.50079 90.8379 9.41482V9.40822ZM90.6725 22.7438C88.2439 22.7438 86.2716 20.7735 86.2716 18.3471C86.2716 15.9206 88.2439 13.9504 90.6725 13.9504C93.1013 13.9504 95.0733 15.9206 95.0733 18.3471C95.0733 20.7735 93.1013 22.7438 90.6725 22.7438Z" fill="white"/>
<path d="M110.128 9.40833C105.192 9.40833 101.181 13.4215 101.181 18.3472C101.181 23.2728 105.198 27.286 110.128 27.286C115.059 27.286 119.076 23.2728 119.076 18.3472C119.076 13.4215 115.059 9.40833 110.128 9.40833ZM110.128 22.7438C107.7 22.7438 105.728 20.7736 105.728 18.3472C105.728 15.9207 107.7 13.9505 110.128 13.9505C112.557 13.9505 114.529 15.9207 114.529 18.3472C114.529 20.7736 112.557 22.7438 110.128 22.7438Z" fill="white"/>
<path d="M129.578 9.40833C124.641 9.40833 120.631 13.4215 120.631 18.3472C120.631 23.2728 124.648 27.286 129.578 27.286C134.508 27.286 138.525 23.2728 138.525 18.3472C138.525 13.4215 134.508 9.40833 129.578 9.40833ZM129.578 22.7438C127.149 22.7438 125.177 20.7736 125.177 18.3472C125.177 15.9207 127.149 13.9505 129.578 13.9505C132.007 13.9505 133.979 15.9207 133.979 18.3472C133.979 20.7736 132.007 22.7438 129.578 22.7438Z" fill="white"/>
<path d="M144.144 0H141.596C141.044 0 140.596 0.446974 140.596 0.998346V26.3273C140.596 26.8786 141.044 27.3256 141.596 27.3256H144.144C144.695 27.3256 145.143 26.8786 145.143 26.3273V0.998346C145.143 0.446974 144.695 0 144.144 0Z" fill="white"/>
<path d="M17.9969 9.26282H15.3631C14.8204 9.26282 14.377 9.70579 14.377 10.248V10.5785C13.0601 9.83142 11.538 9.40167 9.91668 9.40167C4.92031 9.40167 0.857056 13.4678 0.857056 18.4595C0.857056 23.4512 4.92031 27.5174 9.92331 27.5174C11.5446 27.5174 13.0667 27.0876 14.3836 26.3405V30.896C14.3836 33.3554 12.352 35.3454 9.8836 35.2926C7.51446 35.2397 5.58208 33.1768 5.58208 30.81V29.7786C5.58208 29.2363 5.13871 28.7934 4.59606 28.7934H1.95559C1.41294 28.7934 0.969557 29.2363 0.969557 29.7786V30.7637C0.969557 35.59 4.7218 39.6628 9.54608 39.8877C14.7079 40.1257 18.9829 36 18.9829 30.896V10.248C18.9829 9.70579 18.5395 9.26282 17.9969 9.26282ZM9.91668 22.9091C7.46151 22.9091 5.45637 20.9124 5.45637 18.4529C5.45637 15.9934 7.45491 13.9967 9.91668 13.9967C12.3785 13.9967 14.377 15.9934 14.377 18.4529C14.377 20.9124 12.3785 22.9091 9.91668 22.9091Z" fill="white"/>
<path d="M72.1296 31.3257L68.8342 31.286C68.4436 31.286 68.1193 31.5966 68.1128 31.9869L68.0928 33.6332C68.0796 34.9354 69.1188 36 70.4222 36.0132C71.7259 36.0263 72.7913 34.9883 72.8048 33.686L72.8245 32.0397C72.8245 31.6494 72.5136 31.3257 72.1231 31.3189L72.1296 31.3257Z" fill="white"/>
<path d="M70.0119 8.95863C65.4193 9.1834 61.6339 12.9256 61.3628 17.5074C61.1973 20.271 62.2825 22.7966 64.109 24.5751L64.1356 24.6082L67.4048 27.4644C67.689 27.7157 68.053 27.8479 68.4305 27.8479H72.487C72.8642 27.8479 73.2282 27.709 73.5128 27.4644L76.2459 25.071L76.3319 24.9983L76.6828 24.6875L76.7025 24.6743C78.4693 23.0082 79.5745 20.6545 79.5745 18.0495C79.5745 12.8727 75.2333 8.69414 70.0053 8.952L70.0119 8.95863ZM70.4619 13.7917C72.8113 13.7917 74.7239 15.7024 74.7239 18.0561C74.7239 20.4099 72.8113 22.314 70.4619 22.314C68.1128 22.314 66.2002 20.4033 66.2002 18.0561C66.2002 15.709 68.1128 13.7917 70.4619 13.7917Z" fill="white"/>
</g>
</svg>
