<svg width="48" height="48" viewBox="0 0 48 48" fill="none" xmlns="http://www.w3.org/2000/svg">
<rect width="48" height="48" rx="24" fill="#F5F5F5"/>
<g clip-path="url(#clip0_59_44325)">
<path d="M17.6875 14.0312C16.1914 14.1171 14.5234 14.582 12.6875 15.5937L12 15.9687L12.1875 16.7187C12.1875 16.7187 13.0391 20.289 15.0625 22.5312C16.1602 23.7499 17.5625 24.0781 18.6562 23.9687C19.75 23.8593 20.4648 23.4921 20.9688 23.0312L19.625 21.5624C19.668 21.5234 19.0391 21.9374 18.4375 21.9999C17.8359 22.0624 17.2227 21.9531 16.5312 21.1874C15.3789 19.9101 14.707 17.9335 14.4062 16.9999C17.2227 15.6718 19.2891 15.8749 20.5312 16.5937C21.7461 17.3007 22.2422 18.4999 22.125 19.4374C21.8242 19.1992 21.5195 18.9765 21.2188 18.7812C19.3359 17.5468 17.4688 16.9687 17.4688 16.9687L16.875 18.9062C16.875 18.9062 18.5195 19.3827 20.125 20.4374C21.7305 21.4921 23.1562 22.9843 23.1562 24.9999V26.9999H16.1562V31.9999H17.3438L18.4375 37.2187L18.5938 37.9999H29.7188L29.875 37.2187L30.9688 31.9999H32.1562V26.9999H25.1562V26.6874C25.1562 25.4687 26.4023 24.1015 27.875 23.0937C29.3477 22.0859 30.8438 21.4687 30.8438 21.4687L30.0938 19.6249C30.0938 19.6249 29.2383 19.9609 28.1562 20.5624C28.1758 19.9335 28.5312 19.371 29.2812 19.0312C30.1016 18.6601 31.6328 18.8124 33.625 19.7499C33.2734 20.3515 32.9414 21.0117 32 22.1562C31.4414 22.832 30.9297 23.0156 30.5312 23.0312C30.1328 23.0468 29.8789 22.7617 29.9688 22.9062L28.2812 23.9999C28.7891 24.7929 29.625 25.0702 30.5938 25.0312C31.5625 24.9921 32.6875 24.496 33.5625 23.4374C35.0312 21.6562 36.0312 19.7812 36.0312 19.7812L36.5 18.9374L35.6562 18.4374C34.1836 17.5507 32.8398 17.0585 31.625 16.8749C30.4102 16.6913 29.3242 16.8163 28.4375 17.2187C26.6641 18.0195 25.8047 19.9179 26.2812 21.6562C26.293 21.7031 26.3008 21.7031 26.3125 21.7499C25.7969 22.1288 25.2773 22.5468 24.8125 23.0312C24.5625 22.3046 24.1992 21.6445 23.75 21.0624C23.7852 20.9648 23.8203 20.8867 23.8438 20.8124C23.9141 20.5781 23.9766 20.3867 24 20.3124C24.5938 18.3242 23.6016 16.0468 21.5312 14.8437C20.4961 14.2421 19.1836 13.9452 17.6875 14.0312ZM18.1562 28.9999H30.1562V29.9999H18.1562V28.9999ZM19.375 31.9999H28.9375L28.0938 35.9999H20.2188L19.375 31.9999Z" fill="black"/>
<path d="M25.5446 13.7538C25.5446 13.7538 25.7016 15.3108 25.3435 16.7639C25.2203 17.6217 23.0232 20.9426 21.7008 21.4381L22.9648 22.6717C23.7896 22.0044 24.5567 21.2092 25.3435 20.055C26.1302 18.9008 26.6571 17.3953 26.6571 17.3953C26.6974 17.3907 26.6997 17.3968 26.74 17.3922C28.2454 17.255 29.4834 16.0214 29.5905 14.393C29.6455 13.5782 29.4242 12.6886 28.9225 11.7885C28.4208 10.8885 27.6389 9.97796 26.5091 9.08232L25.8682 8.56681L25.3435 9.18322C25.3435 9.18322 24.1652 10.5203 23.1985 12.198C22.6246 13.1967 22.566 14.2262 22.8204 14.9985C23.0748 15.7708 23.9765 16.5984 24.7487 16.7639L24.976 14.9985C24.976 14.9985 24.5145 14.7766 24.4095 14.459C24.3045 14.1415 24.2981 13.6856 24.6645 13.0481C25.2863 11.9719 25.7071 11.5169 26.0761 11.0638C27.3986 12.3525 27.9688 13.5103 27.9187 14.2637C27.8725 14.9527 27.5354 15.3974 27.0472 15.5978C27.2012 14.571 27.2133 13.8003 27.2133 13.8003L25.5446 13.7538Z" fill="black"/>
</g>
<defs>
<clipPath id="clip0_59_44325">
<rect width="32" height="32" fill="white" transform="translate(8 8)"/>
</clipPath>
</defs>
</svg>
