<svg width="100" height="24" viewBox="0 0 100 24" fill="white" xmlns="http://www.w3.org/2000/svg">
<path d="M34.4458 3.93457C35.0497 3.93457 35.546 3.97585 35.9431 4.05015V16.5248C35.4136 16.789 34.7601 17.0119 33.999 17.1935C33.238 17.3751 32.4603 17.4577 31.6827 17.4577C29.9537 17.4577 28.597 17.0284 27.6209 16.1533C26.6447 15.2864 26.1566 14.0563 26.1566 12.4629C26.1566 11.4639 26.3965 10.5723 26.8681 9.79624C27.3396 9.02019 27.9766 8.42577 28.7708 8.02123C29.5649 7.61669 30.4584 7.41855 31.4345 7.41855C32.0219 7.41855 32.5265 7.47634 32.9732 7.59193V4.05015C33.3703 3.97585 33.8584 3.93457 34.4458 3.93457ZM31.5752 14.9314C32.0302 14.9314 32.4934 14.8736 32.9732 14.7498V10.2173C32.6175 10.0357 32.1625 9.94485 31.6248 9.94485C30.9134 9.94485 30.3177 10.1678 29.8545 10.6218C29.3912 11.0759 29.1513 11.6786 29.1513 12.4299C29.1513 13.1812 29.3747 13.7838 29.8214 14.2462C30.2681 14.7085 30.8554 14.9314 31.5752 14.9314Z" />
<path d="M44.169 4.41277L48.7544 16.8737C48.0742 17.0286 47.458 17.1019 46.8978 17.1019C46.5617 17.1019 46.2096 17.0693 45.8415 17.0041L44.9612 14.5103H40.3678L39.4796 17.0041C39.1035 17.053 38.6713 17.0775 38.1752 17.0775C37.551 17.0775 37.0388 17.0041 36.6547 16.8656L41.2721 4.40462C41.6562 4.33128 42.1524 4.29053 42.7606 4.29053C43.3207 4.29053 43.7929 4.33128 44.169 4.40462V4.41277ZM41.2561 12.0898H44.065L43.0326 9.18852L42.6485 7.97421L42.3044 9.18852L41.2641 12.0898H41.2561Z" />
<path d="M53.8165 7.31543C54.5795 7.31543 55.2679 7.42115 55.9065 7.62446C56.5368 7.82777 57.0925 8.12867 57.5652 8.52715C58.038 8.92564 58.4112 9.43797 58.6766 10.0723C58.942 10.7066 59.0747 11.4223 59.0747 12.2355C59.0747 13.252 58.8342 14.1547 58.3614 14.9273C57.8804 15.6999 57.2584 16.2854 56.4788 16.6839C55.6992 17.0824 54.8366 17.2776 53.8829 17.2776C53.294 17.2776 52.7549 17.2206 52.2739 17.0987V20.5468C51.7763 20.62 51.2787 20.6606 50.7728 20.6606C50.2669 20.6606 49.7858 20.62 49.2882 20.5468V8.77925C50.5405 7.8115 52.05 7.32356 53.8248 7.32356L53.8165 7.31543ZM53.6424 14.724C54.3805 14.7403 54.9776 14.5288 55.4172 14.0978C55.8568 13.6668 56.0807 13.065 56.0807 12.2924C56.0807 11.5199 55.8568 10.9669 55.4089 10.544C54.9611 10.1292 54.3556 9.91778 53.6092 9.91778C53.1447 9.91778 52.6969 9.99911 52.2739 10.1699V14.48C52.6388 14.6427 53.095 14.7159 53.6507 14.7159L53.6424 14.724Z" />
<path d="M64.6839 7.31543C65.4192 7.31543 66.0825 7.42115 66.6979 7.62446C67.3053 7.82777 67.8408 8.12867 68.2963 8.52715C68.7519 8.92564 69.1115 9.43797 69.3672 10.0723C69.623 10.7066 69.7509 11.4223 69.7509 12.2355C69.7509 13.252 69.5191 14.1547 69.0635 14.9273C68.6 15.6999 68.0006 16.2854 67.2493 16.6839C66.4981 17.0824 65.6669 17.2776 64.7478 17.2776C64.1804 17.2776 63.6609 17.2206 63.1974 17.0987V20.5468C62.7179 20.62 62.2383 20.6606 61.7508 20.6606C61.2633 20.6606 60.7998 20.62 60.3203 20.5468V8.77925C61.527 7.8115 62.9816 7.32356 64.6919 7.32356L64.6839 7.31543ZM64.5161 14.724C65.2274 14.7403 65.8028 14.5288 66.2264 14.0978C66.6499 13.6668 66.8657 13.065 66.8657 12.2924C66.8657 11.5199 66.6499 10.9669 66.2184 10.544C65.7868 10.1292 65.2034 9.91778 64.4841 9.91778C64.0365 9.91778 63.605 9.99911 63.1974 10.1699V14.48C63.549 14.6427 63.9886 14.7159 64.5241 14.7159L64.5161 14.724Z" />
<path d="M72.6112 17.1018C72.0789 17.1018 71.5465 17.0609 70.9965 16.9873V4.04907C71.3868 3.97546 71.9014 3.93457 72.5491 3.93457C73.1968 3.93457 73.7557 3.97546 74.1993 4.04907V16.9873C73.7113 17.0609 73.1879 17.1018 72.6112 17.1018Z" />
<path d="M78.6752 6.01049C78.3403 6.35888 77.943 6.52902 77.4834 6.52902C77.0238 6.52902 76.6265 6.35888 76.2993 6.01049C75.9644 5.66211 75.8008 5.25701 75.8008 4.77899C75.8008 4.30097 75.9644 3.89587 76.2915 3.55559C76.6187 3.21531 77.016 3.04517 77.4834 3.04517C77.9508 3.04517 78.3403 3.21531 78.6752 3.55559C79.0102 3.89587 79.1816 4.30097 79.1816 4.77899C79.1816 5.25701 79.0102 5.67021 78.6752 6.01049ZM77.4678 17.1021C77.016 17.1021 76.5564 17.0616 76.0812 16.9887V7.73621C76.4395 7.6633 76.8991 7.62279 77.4678 7.62279C78.0365 7.62279 78.4883 7.6633 78.8778 7.73621V16.9887C78.426 17.0616 77.9586 17.1021 77.4678 17.1021Z" />
<path d="M84.8077 7.31543C86.2485 7.31543 87.335 7.67517 88.0594 8.40282C88.7837 9.13047 89.1459 10.0952 89.1459 11.3134V16.9874C88.6735 17.061 88.1932 17.1019 87.7208 17.1019C87.2484 17.1019 86.776 17.061 86.3036 16.9874V11.7876C86.3036 10.5858 85.7289 9.98075 84.5951 9.98075C84.0361 9.98075 83.5322 10.1116 83.0835 10.3732V16.9874C82.6111 17.061 82.1387 17.1019 81.6584 17.1019C81.1781 17.1019 80.7215 17.061 80.2491 16.9874V8.87701C80.6821 8.4764 81.2962 8.11666 82.0914 7.7978C82.8866 7.47895 83.7921 7.3236 84.7998 7.3236L84.8077 7.31543Z" />
<path d="M95.6684 7.31543C96.5232 7.31543 97.3287 7.43857 98.0849 7.69305C98.8411 7.94753 99.4822 8.2759 100 8.68636V16.4522C100 17.2075 99.8767 17.8888 99.6301 18.4717C99.3836 19.0627 99.0384 19.5389 98.5945 19.9083C98.1507 20.2777 97.6328 20.5486 97.041 20.7374C96.4492 20.9262 95.7917 21.0165 95.0766 21.0165C94.0163 21.0165 93.1039 20.8523 92.3148 20.5239C91.534 20.1956 90.9093 19.7687 90.4326 19.2515C90.4901 18.8575 90.6627 18.4881 90.9504 18.1433C91.2381 17.7985 91.5997 17.5522 92.0354 17.3963C92.7916 18.25 93.745 18.6769 94.904 18.6769C95.6355 18.6769 96.178 18.5291 96.5232 18.2254C96.8684 17.9216 97.041 17.5112 97.041 16.9776V16.641C96.5479 16.7888 96.0136 16.8627 95.4464 16.8627C94.5094 16.8627 93.6628 16.6903 92.9066 16.3537C92.1504 16.0171 91.5422 15.4917 91.0819 14.7858C90.6216 14.0798 90.3915 13.2424 90.3915 12.2738C90.3915 11.2476 90.6298 10.361 91.1148 9.59757C91.5997 8.83412 92.2326 8.26769 93.0217 7.88186C93.8108 7.50424 94.6903 7.31543 95.6601 7.31543H95.6684ZM95.7259 14.4984C96.1944 14.4984 96.6383 14.4163 97.0492 14.2604V10.0737C96.5807 9.90131 96.1369 9.81101 95.7259 9.81101C95.0519 9.81101 94.493 10.0244 94.0491 10.4513C93.6053 10.8782 93.3834 11.4446 93.3834 12.167C93.3834 12.8894 93.6053 13.4477 94.0409 13.8663C94.4765 14.285 95.0437 14.4984 95.7341 14.4984H95.7259Z" />
<path d="M19.4122 5.5744L11.0196 0.785884C10.479 0.476645 9.8057 0.476645 9.26515 0.785884L0.87246 5.5744C0.331914 5.88364 0 6.45526 0 7.07374V16.6508C0 17.2693 0.331914 17.8409 0.87246 18.1501L5.36753 20.7177L5.38649 20.6709C5.79427 19.8275 5.78479 18.8529 5.36753 18.0096L2.36133 16.2947V7.42046L10.1376 2.98804L17.9139 7.42046V16.2947L11.323 20.0524V16.9038C11.323 16.9038 11.3515 16.9038 11.3704 16.9038C13.2861 16.9038 15.0215 15.5919 15.4482 13.6615C15.4672 13.5584 15.3819 13.4366 15.2775 13.4085C14.187 13.1742 13.0679 13.371 12.1386 13.9613C11.8351 14.1581 11.5696 14.4018 11.323 14.6548V7.49543H10.4221C9.61603 7.49543 8.9522 8.14202 8.9522 8.94792V11.4499C8.70564 11.1501 8.44011 10.8689 8.10819 10.6347C7.1978 9.99746 6.09774 9.75381 4.9882 9.93186C4.88388 9.9506 4.79853 10.0818 4.8175 10.1755C5.00716 11.2625 5.60461 12.209 6.515 12.8462C7.22625 13.3429 8.06077 13.6052 8.91427 13.6052C8.92375 13.6052 8.93323 13.6052 8.9522 13.6052V22.3818C8.9522 22.6044 9.07169 22.8098 9.26515 22.9199C9.8057 23.2291 10.479 23.2291 11.0196 22.9199L11.3325 22.7418L19.4122 18.1314C19.9528 17.8221 20.2847 17.2505 20.2847 16.632V7.07374C20.2847 6.45526 19.9528 5.88364 19.4122 5.5744Z" />
</svg>
