<svg width="179" height="40" viewBox="0 0 179 40" fill="none" xmlns="http://www.w3.org/2000/svg">
<path d="M61.9677 5.98438C63.0367 5.98438 63.9153 6.05744 64.6181 6.18897V28.27C63.681 28.7377 62.5242 29.1323 61.177 29.4537C59.8298 29.7752 58.4534 29.9214 57.0769 29.9214C54.0165 29.9214 51.615 29.1615 49.8871 27.6124C48.1592 26.078 47.2953 23.9006 47.2953 21.0802C47.2953 19.3119 47.7199 17.7337 48.5546 16.36C49.3893 14.9863 50.5168 13.9341 51.9225 13.2181C53.3283 12.502 54.9097 12.1513 56.6376 12.1513C57.6773 12.1513 58.5705 12.2536 59.3612 12.4582V6.18897C60.0641 6.05744 60.9281 5.98438 61.9677 5.98438ZM56.8865 25.4496C57.6919 25.4496 58.5119 25.3473 59.3612 25.1281V17.1053C58.7316 16.7838 57.9262 16.623 56.9744 16.623C55.7151 16.623 54.6608 17.0176 53.8408 17.8214C53.0208 18.6251 52.5961 19.6919 52.5961 21.0217C52.5961 22.3516 52.9915 23.4184 53.7822 24.2367C54.5729 25.0551 55.6126 25.4496 56.8865 25.4496Z" fill="white"/>
<path d="M79.1788 6.83064L87.2953 28.8875C86.0913 29.1616 85.0006 29.2914 84.0091 29.2914C83.4141 29.2914 82.7909 29.2337 82.1393 29.1183L80.5812 24.7041H72.4505L70.8782 29.1183C70.2125 29.2049 69.4475 29.2481 68.5693 29.2481C67.4645 29.2481 66.5579 29.1183 65.878 28.8731L74.0511 6.81622C74.7311 6.68639 75.6093 6.61426 76.6858 6.61426C77.6774 6.61426 78.5131 6.68639 79.1788 6.81622V6.83064ZM74.0228 20.4196H78.9947L77.1674 15.2841L76.4875 13.1347L75.8784 15.2841L74.037 20.4196H74.0228Z" fill="white"/>
<path d="M96.2556 11.9683C97.6062 11.9683 98.8247 12.1554 99.955 12.5153C101.071 12.8751 102.054 13.4078 102.891 14.1131C103.728 14.8185 104.389 15.7253 104.858 16.8481C105.328 17.9709 105.563 19.2377 105.563 20.6772C105.563 22.4765 105.137 24.0744 104.3 25.4419C103.449 26.8094 102.348 27.8458 100.968 28.5512C99.588 29.2565 98.0613 29.602 96.373 29.602C95.3307 29.602 94.3765 29.5013 93.5251 29.2853V35.3888C92.6442 35.5183 91.7634 35.5903 90.8679 35.5903C89.9724 35.5903 89.1209 35.5183 88.2401 35.3888V14.5593C90.4568 12.8464 93.1287 11.9827 96.2703 11.9827L96.2556 11.9683ZM95.9473 25.082C97.2539 25.1108 98.3108 24.7365 99.0889 23.9736C99.867 23.2107 100.263 22.1455 100.263 20.7779C100.263 19.4104 99.867 18.4316 99.0742 17.683C98.2815 16.9489 97.2098 16.5746 95.8886 16.5746C95.0665 16.5746 94.2738 16.7186 93.5251 17.0209V24.6502C94.171 24.9381 94.9784 25.0676 95.962 25.0676L95.9473 25.082Z" fill="white"/>
<path d="M115.492 11.9683C116.793 11.9683 117.967 12.1554 119.057 12.5153C120.132 12.8751 121.08 13.4078 121.886 14.1131C122.692 14.8185 123.329 15.7253 123.782 16.8481C124.234 17.9709 124.461 19.2377 124.461 20.6772C124.461 22.4765 124.05 24.0744 123.244 25.4419C122.424 26.8094 121.363 27.8458 120.033 28.5512C118.703 29.2565 117.232 29.602 115.605 29.602C114.6 29.602 113.681 29.5013 112.86 29.2853V35.3888C112.012 35.5183 111.163 35.5903 110.3 35.5903C109.437 35.5903 108.616 35.5183 107.768 35.3888V14.5593C109.904 12.8464 112.478 11.9827 115.506 11.9827L115.492 11.9683ZM115.195 25.082C116.454 25.1108 117.472 24.7365 118.222 23.9736C118.972 23.2107 119.354 22.1455 119.354 20.7779C119.354 19.4104 118.972 18.4316 118.208 17.683C117.444 16.9489 116.411 16.5746 115.138 16.5746C114.346 16.5746 113.582 16.7186 112.86 17.0209V24.6502C113.483 24.9381 114.261 25.0676 115.209 25.0676L115.195 25.082Z" fill="white"/>
<path d="M129.524 29.2915C128.581 29.2915 127.639 29.2191 126.665 29.0888V6.18704C127.356 6.05676 128.267 5.98438 129.414 5.98438C130.56 5.98438 131.549 6.05676 132.335 6.18704V29.0888C131.471 29.2191 130.544 29.2915 129.524 29.2915Z" fill="white"/>
<path d="M140.257 9.65853C139.664 10.2752 138.961 10.5764 138.148 10.5764C137.334 10.5764 136.631 10.2752 136.052 9.65853C135.459 9.04186 135.169 8.3248 135.169 7.47867C135.169 6.63255 135.459 5.91549 136.038 5.31316C136.617 4.71083 137.32 4.40967 138.148 4.40967C138.975 4.40967 139.664 4.71083 140.257 5.31316C140.85 5.91549 141.154 6.63255 141.154 7.47867C141.154 8.3248 140.85 9.0562 140.257 9.65853ZM138.12 29.2916C137.32 29.2916 136.507 29.2199 135.666 29.0908V12.7132C136.3 12.5841 137.114 12.5124 138.12 12.5124C139.127 12.5124 139.926 12.5841 140.616 12.7132V29.0908C139.816 29.2199 138.989 29.2916 138.12 29.2916Z" fill="white"/>
<path d="M151.112 11.9683C153.663 11.9683 155.586 12.605 156.868 13.893C158.15 15.181 158.791 16.8887 158.791 19.045V29.0885C157.955 29.2187 157.105 29.2911 156.269 29.2911C155.433 29.2911 154.596 29.2187 153.76 29.0885V19.8844C153.76 17.757 152.743 16.6861 150.736 16.6861C149.747 16.6861 148.855 16.9176 148.06 17.3807V29.0885C147.224 29.2187 146.388 29.2911 145.538 29.2911C144.688 29.2911 143.879 29.2187 143.043 29.0885V14.7324C143.81 14.0233 144.897 13.3865 146.304 12.8221C147.712 12.2577 149.315 11.9827 151.098 11.9827L151.112 11.9683Z" fill="white"/>
<path d="M170.337 11.9683C171.85 11.9683 173.276 12.1862 174.614 12.6367C175.953 13.0871 177.087 13.6684 178.004 14.3949V28.1411C178.004 29.4779 177.786 30.684 177.349 31.7157C176.913 32.7619 176.302 33.6047 175.516 34.2586C174.73 34.9125 173.814 35.392 172.766 35.7262C171.719 36.0604 170.555 36.2202 169.289 36.2202C167.412 36.2202 165.797 35.9296 164.401 35.3484C163.018 34.7671 161.913 34.0115 161.069 33.0961C161.171 32.3986 161.476 31.7447 161.985 31.1344C162.495 30.5241 163.135 30.0882 163.906 29.8121C165.244 31.3233 166.932 32.0789 168.984 32.0789C170.278 32.0789 171.239 31.8174 171.85 31.2797C172.461 30.7421 172.766 30.0156 172.766 29.0711V28.4753C171.893 28.7368 170.948 28.8676 169.944 28.8676C168.285 28.8676 166.787 28.5625 165.448 27.9667C164.11 27.371 163.033 26.441 162.218 25.1913C161.403 23.9417 160.996 22.4595 160.996 20.7449C160.996 18.9285 161.418 17.3592 162.276 16.0078C163.135 14.6565 164.255 13.6538 165.652 12.9709C167.049 12.3025 168.605 11.9683 170.322 11.9683H170.337ZM170.438 24.6827C171.268 24.6827 172.053 24.5374 172.781 24.2613V16.8506C171.952 16.5455 171.166 16.3856 170.438 16.3856C169.245 16.3856 168.256 16.7634 167.47 17.519C166.685 18.2746 166.292 19.2773 166.292 20.556C166.292 21.8347 166.685 22.8228 167.456 23.5639C168.227 24.3049 169.231 24.6827 170.453 24.6827H170.438Z" fill="white"/>
<path d="M35.3573 8.88659L20.5016 0.410533C19.5448 -0.136844 18.3529 -0.136844 17.3961 0.410533L2.54042 8.88659C1.58361 9.43396 0.996094 10.4458 0.996094 11.5405V28.4926C0.996094 29.5874 1.58361 30.5992 2.54042 31.1466L10.497 35.6915L10.5306 35.6085C11.2524 34.1157 11.2356 32.3906 10.497 30.8978L5.17584 27.8623V12.1543L18.9405 4.30852L32.7051 12.1543V27.8623L21.0387 34.5138V28.9405C21.0387 28.9405 21.0891 28.9405 21.1227 28.9405C24.5134 28.9405 27.5853 26.6183 28.3407 23.2013C28.3743 23.0189 28.2232 22.8032 28.0385 22.7535C26.1081 22.3388 24.1274 22.6871 22.4823 23.7321C21.9452 24.0805 21.4752 24.5117 21.0387 24.9596V12.287H19.444C18.0172 12.287 16.8422 13.4315 16.8422 14.858V19.2868C16.4058 18.756 15.9357 18.2583 15.3482 17.8437C13.7368 16.7157 11.7896 16.2845 9.82559 16.5996C9.64095 16.6328 9.48987 16.865 9.52344 17.0309C9.85917 18.955 10.9167 20.6303 12.5282 21.7582C13.7871 22.6374 15.2643 23.1018 16.775 23.1018C16.7918 23.1018 16.8086 23.1018 16.8422 23.1018V38.637C16.8422 39.031 17.0537 39.3946 17.3961 39.5895C18.3529 40.1368 19.5448 40.1368 20.5016 39.5895L21.0555 39.2743L35.3573 31.1134C36.3141 30.566 36.9016 29.5542 36.9016 28.4595V11.5405C36.9016 10.4458 36.3141 9.43396 35.3573 8.88659Z" fill="#B3F14F"/>
</svg>
