<svg width="22" height="22" viewBox="0 0 22 22" fill="none" xmlns="http://www.w3.org/2000/svg">
<path fill-rule="evenodd" clip-rule="evenodd" d="M12.3334 1.6672C12.3334 0.930816 11.7364 0.333862 11 0.333862C10.2637 0.333862 9.66671 0.930816 9.66671 1.6672V9.6672H1.66671C0.930328 9.6672 0.333374 10.2641 0.333374 11.0005C0.333374 11.7369 0.930328 12.3339 1.66671 12.3339H9.66671V20.3339C9.66671 21.0702 10.2637 21.6672 11 21.6672C11.7364 21.6672 12.3334 21.0702 12.3334 20.3339V12.3339H20.3334C21.0698 12.3339 21.6667 11.7369 21.6667 11.0005C21.6667 10.2641 21.0698 9.6672 20.3334 9.6672H12.3334V1.6672Z" fill="#B3F14F"/>
</svg>
