<?xml version="1.0" encoding="utf-8"?>
<!-- Generator: Adobe Illustrator 24.0.2, SVG Export Plug-In . SVG Version: 6.00 Build 0)  -->
<svg version="1.1" id="Capa_1" xmlns="http://www.w3.org/2000/svg" xmlns:xlink="http://www.w3.org/1999/xlink" x="0px" y="0px"
	 viewBox="0 0 44 45" style="enable-background:new 0 0 44 45;" xml:space="preserve">
<style type="text/css">
	.st0{opacity:0.2;fill:#FFFFFF;enable-background:new    ;}
</style>
<path class="st0" d="M40.3,10L23.8,0.5c-1.1-0.6-2.4-0.6-3.5,0L3.7,10C2.7,10.6,2,11.8,2,13v19.1c0,1.2,0.7,2.4,1.7,3l8.9,5.1l0-0.1
	c0.8-1.7,0.8-3.6,0-5.3l-5.9-3.4V13.7L22,4.8l15.4,8.8v17.7l-13,7.5v-6.3c0,0,0.1,0,0.1,0c3.8,0,7.2-2.6,8.1-6.5
	c0-0.2-0.1-0.4-0.3-0.5c-2.2-0.5-4.4-0.1-6.2,1.1c-0.6,0.4-1.1,0.9-1.6,1.4V13.8h-1.8c-1.6,0-2.9,1.3-2.9,2.9v5
	c-0.5-0.6-1-1.2-1.7-1.6c-1.8-1.3-4-1.8-6.2-1.4c-0.2,0-0.4,0.3-0.3,0.5c0.4,2.2,1.6,4,3.4,5.3c1.4,1,3.1,1.5,4.7,1.5c0,0,0,0,0.1,0
	v18.2l0.6,0.4c1.1,0.6,2.4,0.6,3.5,0l0.6-0.4l16-9.2c1.1-0.6,1.7-1.8,1.7-3V13C42.1,11.8,41.4,10.6,40.3,10z"/>
</svg>
