<svg width="16" height="16" viewBox="0 0 16 16" fill="none" xmlns="http://www.w3.org/2000/svg">
<path d="M7.808 0C12.3336 0 16 3.5816 16 8C16 12.4184 12.3328 16 7.808 16C5.2552 16 2.8944 14.8504 1.352 12.9232C1.30876 12.8694 1.27679 12.8074 1.25797 12.741C1.23915 12.6746 1.23387 12.605 1.24246 12.5365C1.25104 12.468 1.2733 12.4019 1.30792 12.3422C1.34255 12.2825 1.38882 12.2303 1.444 12.1888C1.55652 12.1032 1.69795 12.0648 1.83832 12.0816C1.97869 12.0985 2.10698 12.1694 2.196 12.2792C2.87074 13.1178 3.72567 13.7936 4.69734 14.2566C5.66901 14.7196 6.73247 14.9578 7.8088 14.9536C11.7408 14.9536 14.9288 11.84 14.9288 8C14.9288 4.16 11.7408 1.0464 7.8088 1.0464C6.74785 1.04232 5.69921 1.27378 4.73856 1.72409C3.7779 2.1744 2.92917 2.83233 2.2536 3.6504C2.16317 3.75924 2.03388 3.82855 1.89319 3.84363C1.75249 3.85872 1.61145 3.81839 1.5 3.7312C1.4453 3.68898 1.39965 3.63619 1.36577 3.57597C1.33189 3.51576 1.31047 3.44934 1.30278 3.38067C1.29509 3.312 1.30129 3.24249 1.32102 3.17627C1.34075 3.11004 1.37359 3.04847 1.4176 2.9952C2.9624 1.1152 5.2912 0 7.808 0ZM8.244 5.4896L10.4096 7.6552C10.6192 7.8648 10.6232 8.1992 10.4184 8.404L8.304 10.52C8.25423 10.5687 8.19535 10.6071 8.13073 10.633C8.0661 10.6589 7.997 10.6719 7.92738 10.671C7.85775 10.6702 7.78897 10.6557 7.72497 10.6283C7.66097 10.6008 7.60301 10.5611 7.5544 10.5112C7.5046 10.4625 7.46488 10.4045 7.43752 10.3405C7.41016 10.2765 7.3957 10.2077 7.39495 10.1381C7.39421 10.0684 7.40721 9.99935 7.43319 9.93475C7.45918 9.87015 7.49765 9.81131 7.5464 9.7616L8.784 8.5232L0.536 8.524C0.466384 8.52485 0.397285 8.51196 0.332655 8.48607C0.268025 8.46018 0.209134 8.42181 0.15935 8.37314C0.109567 8.32447 0.0698675 8.26646 0.0425245 8.20243C0.0151815 8.13841 0.000731045 8.06962 0 8C0 7.7112 0.24 7.4768 0.536 7.4768H8.7504L7.504 6.2296C7.4542 6.18094 7.41448 6.12293 7.38712 6.05891C7.35976 5.99488 7.3453 5.92608 7.34455 5.85646C7.34381 5.78683 7.35681 5.71775 7.38279 5.65315C7.40878 5.58855 7.44725 5.52971 7.496 5.48C7.59644 5.38214 7.73159 5.3281 7.87182 5.32975C8.01204 5.3314 8.14589 5.3894 8.244 5.4896Z" fill="#B3F14F"/>
</svg>
