<svg width="24" height="24" viewBox="0 0 24 24" fill="none" xmlns="http://www.w3.org/2000/svg">
<path d="M11.712 0C18.5004 0 24 5.3724 24 12C24 18.6276 18.4992 24 11.712 24C7.8828 24 4.3416 22.2756 2.028 19.3848C1.96314 19.3041 1.91518 19.2111 1.88695 19.1115C1.85872 19.0118 1.85081 18.9075 1.86368 18.8048C1.87656 18.702 1.90995 18.6029 1.96189 18.5133C2.01382 18.4237 2.08323 18.3454 2.166 18.2832C2.33478 18.1548 2.54692 18.0971 2.75748 18.1224C2.96803 18.1478 3.16046 18.254 3.294 18.4188C4.30611 19.6767 5.58851 20.6905 7.04602 21.3849C8.50352 22.0794 10.0987 22.4367 11.7132 22.4304C17.6112 22.4304 22.3932 17.76 22.3932 12C22.3932 6.24 17.6112 1.5696 11.7132 1.5696C10.1218 1.56348 8.54882 1.91068 7.10783 2.58614C5.66685 3.2616 4.39375 4.24849 3.3804 5.4756C3.24475 5.63885 3.05083 5.74282 2.83978 5.76545C2.62873 5.78808 2.41718 5.72758 2.25 5.5968C2.16795 5.53347 2.09948 5.45429 2.04865 5.36396C1.99783 5.27363 1.9657 5.174 1.95417 5.071C1.94264 4.968 1.95194 4.86373 1.98153 4.7644C2.01112 4.66507 2.06039 4.5727 2.1264 4.4928C4.4436 1.6728 7.9368 0 11.712 0ZM12.366 8.2344L15.6144 11.4828C15.9288 11.7972 15.9348 12.2988 15.6276 12.606L12.456 15.78C12.3814 15.853 12.293 15.9107 12.1961 15.9495C12.0992 15.9884 11.9955 16.0078 11.8911 16.0066C11.7866 16.0053 11.6835 15.9835 11.5875 15.9424C11.4915 15.9013 11.4045 15.8416 11.3316 15.7668C11.2569 15.6938 11.1973 15.6068 11.1563 15.5108C11.1152 15.4147 11.0935 15.3115 11.0924 15.2071C11.0913 15.1027 11.1108 14.999 11.1498 14.9021C11.1888 14.8052 11.2465 14.717 11.3196 14.6424L13.176 12.7848L0.804 12.786C0.699576 12.7873 0.595927 12.7679 0.498982 12.7291C0.402038 12.6903 0.313701 12.6327 0.239025 12.5597C0.16435 12.4867 0.104801 12.3997 0.0637867 12.3037C0.0227722 12.2076 0.00109657 12.1044 0 12C0 11.5668 0.36 11.2152 0.804 11.2152H13.1256L11.256 9.3444C11.1813 9.27141 11.1217 9.1844 11.0807 9.08836C11.0396 8.99232 11.0179 8.88913 11.0168 8.78469C11.0157 8.68025 11.0352 8.57662 11.0742 8.47972C11.1132 8.38283 11.1709 8.29457 11.244 8.22C11.3947 8.0732 11.5974 7.99215 11.8077 7.99463C12.0181 7.9971 12.2188 8.0841 12.366 8.2344Z" fill="black"/>
</svg>
