<svg width="48" height="48" viewBox="0 0 48 48" fill="none" xmlns="http://www.w3.org/2000/svg">
<rect width="48" height="48" rx="24" fill="#F5F5F5"/>
<path d="M17.543 13.0137C16.0486 13.0987 14.3541 13.5866 12.5176 14.5976L11.8359 14.9726L12.0312 15.7246C12.0312 15.7246 12.873 19.2837 14.8945 21.5273C15.9922 22.7447 17.4004 23.0827 18.4941 22.9726C19.5878 22.8626 20.3227 22.4966 20.8281 22.0371L19.4824 20.5566C19.5258 20.5172 18.8958 20.9217 18.293 20.9824C17.6906 21.043 17.0706 20.9517 16.3809 20.1875C15.2329 18.9134 14.551 16.9543 14.248 16.0156C17.0716 14.6813 19.1189 14.8546 20.3613 15.5762C21.5866 16.2878 22.0943 17.4997 21.9707 18.4394C21.6681 18.1959 21.3614 17.9616 21.0566 17.7617C19.1724 16.5257 17.3047 15.9707 17.3047 15.9707L16.7305 17.8867C16.7305 17.8867 18.3541 18.3796 19.9609 19.4336C21.5677 20.4876 23 21.9774 23 23.9941V25.664V25.9922V27.9922H20V25.9922H8V27.9922H18V29.9922H30V27.9922H40V25.9922H28V27.9922H25V25.9922V25.664C25 24.4456 26.2505 23.0843 27.7227 22.0781C29.1949 21.0719 30.6875 20.4726 30.6875 20.4726L29.9473 18.6152C29.9473 18.6152 29.09 18.9613 27.9961 19.5683C28.0119 18.9378 28.3661 18.3731 29.1172 18.0332C29.9391 17.6612 31.4892 17.8063 33.4844 18.748C33.1332 19.347 32.7964 20.0101 31.8496 21.1582C31.2917 21.8346 30.7692 22.0016 30.3711 22.0176C29.973 22.0335 29.7134 21.7654 29.8047 21.9082L28.1211 22.9844C28.6294 23.7792 29.4823 24.0544 30.4512 24.0156C31.4201 23.9768 32.5195 23.4902 33.3926 22.4316C34.8617 20.6501 35.877 18.7637 35.877 18.7637L36.332 17.9238L35.5137 17.4297C34.0397 16.5426 32.6779 16.037 31.4629 15.8535C30.2479 15.6699 29.1793 15.8098 28.293 16.2109C26.5203 17.0132 25.658 18.9191 26.1328 20.6562C26.1486 20.7142 26.1518 20.7115 26.168 20.7656C25.6542 21.1699 25.15 21.6297 24.6777 22.125C24.4313 21.3648 24.0486 20.6851 23.5898 20.0781C23.6306 19.9854 23.6815 19.8836 23.7031 19.8105C23.7719 19.5779 23.81 19.3827 23.832 19.3086C24.4257 17.3209 23.4337 15.047 21.3652 13.8457C20.331 13.245 19.0374 12.9286 17.543 13.0137ZM22.4805 18.8125L22.4863 18.875C22.4676 18.8578 22.4485 18.8412 22.4297 18.8242C22.4481 18.8217 22.4611 18.814 22.4805 18.8125ZM8 32.9922C8 34.6752 9.757 35.9922 12 35.9922C13.213 35.9922 14.272 35.5985 15 34.9785C15.728 35.5985 16.787 35.9922 18 35.9922C19.213 35.9922 20.272 35.5985 21 34.9785C21.728 35.5985 22.787 35.9922 24 35.9922C25.213 35.9922 26.272 35.5985 27 34.9785C27.728 35.5985 28.787 35.9922 30 35.9922C31.213 35.9922 32.272 35.5985 33 34.9785C33.728 35.5985 34.787 35.9922 36 35.9922C38.243 35.9922 40 34.6752 40 32.9922H38C38 33.4002 37.221 33.9922 36 33.9922C34.779 33.9922 34 33.4002 34 32.9922H32C32 33.4002 31.221 33.9922 30 33.9922C28.779 33.9922 28 33.4002 28 32.9922H26C26 33.4002 25.221 33.9922 24 33.9922C22.779 33.9922 22 33.4002 22 32.9922H20C20 33.4002 19.221 33.9922 18 33.9922C16.779 33.9922 16 33.4002 16 32.9922H14C14 33.4002 13.221 33.9922 12 33.9922C10.779 33.9922 10 33.4002 10 32.9922H8Z" fill="black"/>
</svg>
