<?xml version="1.0" encoding="utf-8"?>
<!-- Generator: Adobe Illustrator 24.0.2, SVG Export Plug-In . SVG Version: 6.00 Build 0)  -->
<svg version="1.1" id="Capa_1" xmlns="http://www.w3.org/2000/svg" xmlns:xlink="http://www.w3.org/1999/xlink" x="0px" y="0px"
	 viewBox="0 0 44 45" style="enable-background:new 0 0 44 45;" xml:space="preserve">
<style type="text/css">
	.st0{fill:#FFFFFF;fill-opacity:8.000000e-02;}
</style>
<path class="st0" d="M31.7,18.8c-2.2-0.5-4.4-0.1-6.2,1.1c-0.6,0.4-1.1,0.9-1.6,1.4V7h-1.8c-1.6,0-2.9,1.3-2.9,2.9v5
	c-0.5-0.6-1-1.2-1.7-1.6c-1.8-1.3-4-1.8-6.2-1.4c-0.2,0-0.4,0.3-0.3,0.5c0.4,2.2,1.6,4.1,3.4,5.3c1.4,1,3.1,1.5,4.7,1.5
	c0,0,0,0,0.1,0v18.3l0.6,0.4c1.1,0.6,2.4,0.6,3.5,0l0.6-0.4V25.8c0,0,0.1,0,0.1,0c3.8,0,7.2-2.6,8.1-6.5
	C32,19.1,31.9,18.9,31.7,18.8L31.7,18.8z"/>
</svg>
