<?xml version="1.0" encoding="utf-8"?>
<!-- Generator: Adobe Illustrator 24.0.2, SVG Export Plug-In . SVG Version: 6.00 Build 0)  -->
<svg version="1.1" id="Capa_1" xmlns="http://www.w3.org/2000/svg" xmlns:xlink="http://www.w3.org/1999/xlink" x="0px" y="0px"
	 viewBox="0 0 44 45" style="enable-background:new 0 0 44 45;" xml:space="preserve">
<style type="text/css">
	.st0{opacity:0.2;fill:#FFFFFF;}
</style>
<path class="st0" d="M40.3,24.2c-1.2,0-2.2-1-2.2-2.2s1-2.2,2.2-2.2c0.7,0,1.2-0.5,1.2-1.2c0-0.7-0.5-1.2-1.2-1.2
	c-1.2,0-2.2,0.5-3,1.2c-1.2-2.2-3.5-3.6-6.1-3.6h-1.2c-1.2-2.1-3-3.8-5.3-4.6l1.7-1.7h4.9c0.7,0,1.2-0.5,1.2-1.2
	c0-0.7-0.5-1.2-1.2-1.2h-5.4c-0.3,0-0.6,0.1-0.9,0.4l-3.1,3.2c-0.2,0-0.4,0-0.6,0h-3.1V4.2C18.2,3.5,17.6,3,17,3
	c-0.7,0-1.2,0.5-1.2,1.2v5.5h-0.9c-0.9,0-1.7,0.1-2.6,0.3L8.9,6.6C8.7,6.3,8.4,6.2,8.1,6.2H2.7C2,6.2,1.5,6.7,1.5,7.4
	c0,0.7,0.5,1.2,1.2,1.2h4.9l2.2,2.2c-4.2,2-7,6.2-7,11.1s2.9,9.2,7,11.1l-2.2,2.2H2.7c-0.7,0-1.2,0.5-1.2,1.2c0,0.7,0.5,1.2,1.2,1.2
	h5.4c0.3,0,0.6-0.1,0.8-0.4l3.4-3.4c0.8,0.2,1.7,0.3,2.6,0.3h0.9v5.5c0,0.7,0.5,1.2,1.2,1.2c0.7,0,1.2-0.5,1.2-1.2v-5.5h3.1
	c0.2,0,0.4,0,0.6,0l3.1,3.2c0.2,0.2,0.5,0.4,0.9,0.4h5.4c0.7,0,1.2-0.5,1.2-1.2c0-0.7-0.5-1.2-1.2-1.2h-4.9l-1.7-1.7
	c2.3-0.8,4.1-2.5,5.3-4.6h1.2c2.6,0,4.9-1.5,6.1-3.6c0.8,0.7,1.9,1.2,3,1.2c0.7,0,1.2-0.5,1.2-1.2C41.5,24.7,41,24.2,40.3,24.2z
	 M21.2,31.8h-6.3c-5.4,0-9.8-4.4-9.8-9.8h0c0-5.4,4.4-9.8,9.7-9.8h6.3c2.1,0,4,0.9,5.4,2.3c-2.5,1.2-4.3,3.6-4.8,6.4h-9.8
	c-0.7,0-1.2,0.5-1.2,1.2s0.5,1.2,1.2,1.2h9.8c0.4,2.8,2.2,5.2,4.7,6.4C25.2,31,23.3,31.8,21.2,31.8z M28.8,24.2
	c0,1.2-0.3,2.3-0.7,3.3c-2.3-0.8-3.9-3-3.9-5.5c0-1.3,0.4-2.4,1.1-3.4c0.7-1,1.6-1.7,2.8-2.1c0.5,1,0.7,2.1,0.7,3.3V24.2z
	 M31.2,26.6h-0.3c0.2-0.8,0.3-1.6,0.3-2.4v-4.5c0-0.8-0.1-1.6-0.3-2.4h0.3c1.3,0,2.4,0.5,3.2,1.3c0.8,0.8,1.3,2,1.3,3.3
	C35.7,24.5,33.7,26.6,31.2,26.6z"/>
</svg>
